REM DIRINDEX 1\2,1\3,1\4,1\5
REM DIRNAME cjc156,folder01,folder02,folder03,folder04
TITLE ""
FILE "CD1Track06.mp3" MP3
  TRACK 01 AUDIO
    TITLE "5:cjc156_0479"
    INDEX 01 00:00:00
  TRACK 02 AUDIO
    TITLE "0:"
    INDEX 01 00:01:32
  TRACK 03 AUDIO
    TITLE "2:cjc156_0480"
    INDEX 01 00:02:45
  TRACK 04 AUDIO
    TITLE "3:cjc156_0481"
    INDEX 01 00:04:56
  TRACK 05 AUDIO
    TITLE "2:cjc156_0482"
    INDEX 01 00:06:71
  TRACK 06 AUDIO
    TITLE "3:cjc156_0483"
    INDEX 01 00:09:32
  TRACK 07 AUDIO
    TITLE "2:cjc156_0484"
    INDEX 01 00:11:74
  TRACK 08 AUDIO
    TITLE "3:cjc156_0485"
    INDEX 01 00:14:53
  TRACK 09 AUDIO
    TITLE "2:cjc156_0486"
    INDEX 01 00:17:41
  TRACK 10 AUDIO
    TITLE "3:cjc156_0487"
    INDEX 01 00:18:54
  TRACK 11 AUDIO
    TITLE "2:cjc156_0488"
    INDEX 01 00:19:73
  TRACK 12 AUDIO
    TITLE "3:cjc156_0489"
    INDEX 01 00:21:53
  TRACK 13 AUDIO
    TITLE "2:cjc156_0490"
    INDEX 01 00:23:38
  TRACK 14 AUDIO
    TITLE "3:cjc156_0491"
    INDEX 01 00:25:13
  TRACK 15 AUDIO
    TITLE "2:cjc156_0492"
    INDEX 01 00:27:02
  TRACK 16 AUDIO
    TITLE "3:cjc156_0493"
    INDEX 01 00:29:52
  TRACK 17 AUDIO
    TITLE "2:cjc156_0494"
    INDEX 01 00:32:37
  TRACK 18 AUDIO
    TITLE "3:cjc156_0495"
    INDEX 01 00:36:03
  TRACK 19 AUDIO
    TITLE "2:cjc156_0496"
    INDEX 01 00:39:52
  TRACK 20 AUDIO
    TITLE "3:cjc156_0497"
    INDEX 01 00:42:43
  TRACK 21 AUDIO
    TITLE "2:cjc156_0498"
    INDEX 01 00:45:47
  TRACK 22 AUDIO
    TITLE "3:cjc156_0499"
    INDEX 01 00:47:32
  TRACK 23 AUDIO
    TITLE "2:cjc156_0500"
    INDEX 01 00:49:20
  TRACK 24 AUDIO
    TITLE "3:cjc156_0501"
    INDEX 01 00:50:68
  TRACK 25 AUDIO
    TITLE "2:cjc156_0502"
    INDEX 01 00:52:47
  TRACK 26 AUDIO
    TITLE "3:cjc156_0503"
    INDEX 01 00:54:68
  TRACK 27 AUDIO
    TITLE "2:cjc156_0504"
    INDEX 01 00:57:25
  TRACK 28 AUDIO
    TITLE "3:cjc156_0505"
    INDEX 01 00:58:52
  TRACK 29 AUDIO
    TITLE "2:cjc156_0506"
    INDEX 01 01:00:04
  TRACK 30 AUDIO
    TITLE "3:cjc156_0507"
    INDEX 01 01:02:36
  TRACK 31 AUDIO
    TITLE "2:cjc156_0508"
    INDEX 01 01:04:72
  TRACK 32 AUDIO
    TITLE "3:cjc156_0509"
    INDEX 01 01:06:61
  TRACK 33 AUDIO
    TITLE "2:cjc156_0510"
    INDEX 01 01:08:56
  TRACK 34 AUDIO
    TITLE "3:cjc156_0511"
    INDEX 01 01:10:69
  TRACK 35 AUDIO
    TITLE "2:cjc156_0512"
    INDEX 01 01:13:12
  TRACK 36 AUDIO
    TITLE "3:cjc156_0513"
    INDEX 01 01:14:49
  TRACK 37 AUDIO
    TITLE "2:cjc156_0514"
    INDEX 01 01:16:16
  TRACK 38 AUDIO
    TITLE "3:cjc156_0515"
    INDEX 01 01:18:02
  TRACK 39 AUDIO
    TITLE "2:cjc156_0516"
    INDEX 01 01:19:70
  TRACK 40 AUDIO
    TITLE "3:cjc156_0517"
    INDEX 01 01:21:06
  TRACK 41 AUDIO
    TITLE "2:cjc156_0518"
    INDEX 01 01:22:23
  TRACK 42 AUDIO
    TITLE "3:cjc156_0519"
    INDEX 01 01:23:32
  TRACK 43 AUDIO
    TITLE "2:cjc156_0520"
    INDEX 01 01:24:43
  TRACK 44 AUDIO
    TITLE "3:cjc156_0521"
    INDEX 01 01:25:57
  TRACK 45 AUDIO
    TITLE "2:cjc156_0522"
    INDEX 01 01:27:03
  TRACK 46 AUDIO
    TITLE "3:cjc156_0523"
    INDEX 01 01:28:14
  TRACK 47 AUDIO
    TITLE "2:cjc156_0524"
    INDEX 01 01:29:35
  TRACK 48 AUDIO
    TITLE "3:cjc156_0525"
    INDEX 01 01:30:62
  TRACK 49 AUDIO
    TITLE "2:cjc156_0526"
    INDEX 01 01:32:19
  TRACK 50 AUDIO
    TITLE "3:cjc156_0527"
    INDEX 01 01:33:56
  TRACK 51 AUDIO
    TITLE "2:cjc156_0528"
    INDEX 01 01:35:27
  TRACK 52 AUDIO
    TITLE "3:cjc156_0529"
    INDEX 01 01:37:01
  TRACK 53 AUDIO
    TITLE "2:cjc156_0530"
    INDEX 01 01:38:57
  TRACK 54 AUDIO
    TITLE "3:cjc156_0531"
    INDEX 01 01:40:50
  TRACK 55 AUDIO
    TITLE "2:cjc156_0532"
    INDEX 01 01:42:51
  TRACK 56 AUDIO
    TITLE "3:cjc156_0533"
    INDEX 01 01:44:46
  TRACK 57 AUDIO
    TITLE "2:cjc156_0534"
    INDEX 01 01:46:49
  TRACK 58 AUDIO
    TITLE "3:cjc156_0535"
    INDEX 01 01:47:74
  TRACK 59 AUDIO
    TITLE "2:cjc156_0536"
    INDEX 01 01:49:33
  TRACK 60 AUDIO
    TITLE "3:cjc156_0537"
    INDEX 01 01:51:50
  TRACK 61 AUDIO
    TITLE "2:cjc156_0538"
    INDEX 01 01:53:72
  TRACK 62 AUDIO
    TITLE "3:cjc156_0539"
    INDEX 01 01:55:50
  TRACK 63 AUDIO
    TITLE "2:cjc156_0540"
    INDEX 01 01:57:31
  TRACK 64 AUDIO
    TITLE "3:cjc156_0541"
    INDEX 01 01:59:14
  TRACK 65 AUDIO
    TITLE "2:cjc156_0542"
    INDEX 01 02:00:74
  TRACK 66 AUDIO
    TITLE "3:cjc156_0543"
    INDEX 01 02:02:38
  TRACK 67 AUDIO
    TITLE "2:cjc156_0544"
    INDEX 01 02:04:13
  TRACK 68 AUDIO
    TITLE "3:cjc156_0545"
    INDEX 01 02:05:56
  TRACK 69 AUDIO
    TITLE "2:cjc156_0546"
    INDEX 01 02:07:31
  TRACK 70 AUDIO
    TITLE "3:cjc156_0547"
    INDEX 01 02:08:41
  TRACK 71 AUDIO
    TITLE "2:cjc156_0548"
    INDEX 01 02:09:58
  TRACK 72 AUDIO
    TITLE "3:cjc156_0549"
    INDEX 01 02:11:72
  TRACK 73 AUDIO
    TITLE "2:cjc156_0550"
    INDEX 01 02:14:18
  TRACK 74 AUDIO
    TITLE "3:cjc156_0551"
    INDEX 01 02:15:70
  TRACK 75 AUDIO
    TITLE "2:cjc156_0552"
    INDEX 01 02:17:53
  TRACK 76 AUDIO
    TITLE "3:cjc156_0553"
    INDEX 01 02:19:54
  TRACK 77 AUDIO
    TITLE "2:cjc156_0554"
    INDEX 01 02:21:63
  TRACK 78 AUDIO
    TITLE "3:cjc156_0555"
    INDEX 01 02:23:60
  TRACK 79 AUDIO
    TITLE "2:cjc156_0556"
    INDEX 01 02:25:59
  TRACK 80 AUDIO
    TITLE "3:cjc156_0557"
    INDEX 01 02:27:13
  TRACK 81 AUDIO
    TITLE "2:cjc156_0558"
    INDEX 01 02:28:43
  TRACK 82 AUDIO
    TITLE "3:cjc156_0559"
    INDEX 01 02:29:57
  TRACK 83 AUDIO
    TITLE "2:cjc156_0560"
    INDEX 01 02:31:03
  TRACK 84 AUDIO
    TITLE "3:cjc156_0561"
    INDEX 01 02:33:09
  TRACK 85 AUDIO
    TITLE "2:cjc156_0562"
    INDEX 01 02:35:30
  TRACK 86 AUDIO
    TITLE "3:cjc156_0563"
    INDEX 01 02:37:13
  TRACK 87 AUDIO
    TITLE "2:cjc156_0564"
    INDEX 01 02:39:04
  TRACK 88 AUDIO
    TITLE "3:cjc156_0565"
    INDEX 01 02:40:74
  TRACK 89 AUDIO
    TITLE "2:cjc156_0566"
    INDEX 01 02:42:73
  TRACK 90 AUDIO
    TITLE "3:cjc156_0567"
    INDEX 01 02:44:62
  TRACK 91 AUDIO
    TITLE "2:cjc156_0568"
    INDEX 01 02:46:55
  TRACK 92 AUDIO
    TITLE "3:cjc156_0569"
    INDEX 01 02:48:07
  TRACK 93 AUDIO
    TITLE "2:cjc156_0570"
    INDEX 01 02:49:42
  TRACK 94 AUDIO
    TITLE "3:cjc156_0571"
    INDEX 01 02:52:56
  TRACK 95 AUDIO
    TITLE "2:cjc156_0572"
    INDEX 01 02:55:74
  TRACK 96 AUDIO
    TITLE "3:cjc156_0573"
    INDEX 01 02:57:21
  TRACK 97 AUDIO
    TITLE "2:cjc156_0574"
    INDEX 01 02:58:56
  TRACK 98 AUDIO
    TITLE "3:cjc156_0575"
    INDEX 01 03:00:22
  TRACK 99 AUDIO
    TITLE "2:cjc156_0576"
    INDEX 01 03:01:66
  TRACK 100 AUDIO
    TITLE "3:cjc156_0577"
    INDEX 01 03:04:02
  TRACK 101 AUDIO
    TITLE "2:cjc156_0578"
    INDEX 01 03:06:17
  TRACK 102 AUDIO
    TITLE "3:cjc156_0579"
    INDEX 01 03:08:00
  TRACK 103 AUDIO
    TITLE "2:cjc156_0580"
    INDEX 01 03:09:66
  TRACK 104 AUDIO
    TITLE "3:cjc156_0581"
    INDEX 01 03:12:66
  TRACK 105 AUDIO
    TITLE "2:cjc156_0582"
    INDEX 01 03:15:74
  TRACK 106 AUDIO
    TITLE "3:cjc156_0583"
    INDEX 01 03:17:14
  TRACK 107 AUDIO
    TITLE "2:cjc156_0584"
    INDEX 01 03:18:41
  TRACK 108 AUDIO
    TITLE "3:cjc156_0585"
    INDEX 01 03:20:52
  TRACK 109 AUDIO
    TITLE "2:cjc156_0586"
    INDEX 01 03:22:66
  TRACK 110 AUDIO
    TITLE "3:cjc156_0587"
    INDEX 01 03:24:71
  TRACK 111 AUDIO
    TITLE "2:cjc156_0588"
    INDEX 01 03:27:09
  TRACK 112 AUDIO
    TITLE "3:cjc156_0589"
    INDEX 01 03:29:10
  TRACK 113 AUDIO
    TITLE "2:cjc156_0590"
    INDEX 01 03:31:18
  TRACK 114 AUDIO
    TITLE "3:cjc156_0591"
    INDEX 01 03:32:65
  TRACK 115 AUDIO
    TITLE "2:cjc156_0592"
    INDEX 01 03:34:50
  TRACK 116 AUDIO
    TITLE "3:cjc156_0593"
    INDEX 01 03:35:57
  TRACK 117 AUDIO
    TITLE "2:cjc156_0594"
    INDEX 01 03:37:01
  TRACK 118 AUDIO
    TITLE "3:cjc156_0595"
    INDEX 01 03:38:28
  TRACK 119 AUDIO
    TITLE "2:cjc156_0596"
    INDEX 01 03:39:59
  TRACK 120 AUDIO
    TITLE "3:cjc156_0597"
    INDEX 01 03:41:42
  TRACK 121 AUDIO
    TITLE "2:cjc156_0598"
    INDEX 01 03:43:37
  TRACK 122 AUDIO
    TITLE "3:cjc156_0599"
    INDEX 01 03:44:70
  TRACK 123 AUDIO
    TITLE "2:cjc156_0600"
    INDEX 01 03:46:42
  TRACK 124 AUDIO
    TITLE "3:cjc156_0601"
    INDEX 01 03:48:38
  TRACK 125 AUDIO
    TITLE "2:cjc156_0602"
    INDEX 01 03:50:47
  TRACK 126 AUDIO
    TITLE "3:cjc156_0603"
    INDEX 01 03:52:05
  TRACK 127 AUDIO
    TITLE "2:cjc156_0604"
    INDEX 01 03:53:47
  TRACK 128 AUDIO
    TITLE "3:cjc156_0605"
    INDEX 01 03:55:35
  TRACK 129 AUDIO
    TITLE "2:cjc156_0606"
    INDEX 01 03:57:30
  TRACK 130 AUDIO
    TITLE "3:cjc156_0607"
    INDEX 01 03:58:54
  TRACK 131 AUDIO
    TITLE "2:cjc156_0608"
    INDEX 01 04:00:20
  TRACK 132 AUDIO
    TITLE "3:cjc156_0609"
    INDEX 01 04:02:46
  TRACK 133 AUDIO
    TITLE "2:cjc156_0610"
    INDEX 01 04:05:08
  TRACK 134 AUDIO
    TITLE "3:cjc156_0611"
    INDEX 01 04:06:52
  TRACK 135 AUDIO
    TITLE "2:cjc156_0612"
    INDEX 01 04:08:35
  TRACK 136 AUDIO
    TITLE "3:cjc156_0613"
    INDEX 01 04:09:70
  TRACK 137 AUDIO
    TITLE "2:cjc156_0614"
    INDEX 01 04:11:38
  TRACK 138 AUDIO
    TITLE "3:cjc156_0615"
    INDEX 01 04:13:68
  TRACK 139 AUDIO
    TITLE "2:cjc156_0616"
    INDEX 01 04:16:27
  TRACK 140 AUDIO
    TITLE "3:cjc156_0617"
    INDEX 01 04:18:18
  TRACK 141 AUDIO
    TITLE "2:cjc156_0618"
    INDEX 01 04:20:11
  TRACK 142 AUDIO
    TITLE "3:cjc156_0619"
    INDEX 01 04:21:32
  TRACK 143 AUDIO
    TITLE "2:cjc156_0620"
    INDEX 01 04:22:59
  TRACK 144 AUDIO
    TITLE "3:cjc156_0621"
    INDEX 01 04:24:05
  TRACK 145 AUDIO
    TITLE "2:cjc156_0622"
    INDEX 01 04:25:30
  TRACK 146 AUDIO
    TITLE "3:cjc156_0623"
    INDEX 01 04:27:19
  TRACK 147 AUDIO
    TITLE "2:cjc156_0624"
    INDEX 01 04:29:20
  TRACK 148 AUDIO
    TITLE "3:cjc156_0625"
    INDEX 01 04:30:06
  TRACK 149 AUDIO
    TITLE "2:cjc156_0626"
    INDEX 01 04:31:05
  TRACK 150 AUDIO
    TITLE "3:cjc156_0627"
    INDEX 01 04:32:51
  TRACK 151 AUDIO
    TITLE "2:cjc156_0628"
    INDEX 01 04:34:31
  TRACK 152 AUDIO
    TITLE "3:cjc156_0629"
    INDEX 01 04:36:30
  TRACK 153 AUDIO
    TITLE "2:cjc156_0630"
    INDEX 01 04:38:34
  TRACK 154 AUDIO
    TITLE "3:cjc156_0631"
    INDEX 01 04:39:44
  TRACK 155 AUDIO
    TITLE "2:cjc156_0632"
    INDEX 01 04:40:53
  TRACK 156 AUDIO
    TITLE "3:cjc156_0633"
    INDEX 01 04:42:62
  TRACK 157 AUDIO
    TITLE "2:cjc156_0634"
    INDEX 01 04:44:72
  TRACK 158 AUDIO
    TITLE "3:cjc156_0635"
    INDEX 01 04:46:26
  TRACK 159 AUDIO
    TITLE "2:cjc156_0636"
    INDEX 01 04:47:55
  TRACK 160 AUDIO
    TITLE "3:cjc156_0637"
    INDEX 01 04:48:68
  TRACK 161 AUDIO
    TITLE "2:cjc156_0638"
    INDEX 01 04:50:14
  TRACK 162 AUDIO
    TITLE "3:cjc156_0639"
    INDEX 01 04:52:15
  TRACK 163 AUDIO
    TITLE "2:cjc156_0640"
    INDEX 01 04:54:28
  TRACK 164 AUDIO
    TITLE "3:cjc156_0641"
    INDEX 01 04:56:62
  TRACK 165 AUDIO
    TITLE "2:cjc156_0642"
    INDEX 01 04:59:35
  TRACK 166 AUDIO
    TITLE "3:cjc156_0643"
    INDEX 01 05:00:67
  TRACK 167 AUDIO
    TITLE "2:cjc156_0644"
    INDEX 01 05:02:33
  TRACK 168 AUDIO
    TITLE "3:cjc156_0645"
    INDEX 01 05:05:27
  TRACK 169 AUDIO
    TITLE "2:cjc156_0646"
    INDEX 01 05:08:30
  TRACK 170 AUDIO
    TITLE "3:cjc156_0647"
    INDEX 01 05:09:74
  TRACK 171 AUDIO
    TITLE "2:cjc156_0648"
    INDEX 01 05:11:51
  TRACK 172 AUDIO
    TITLE "3:cjc156_0649"
    INDEX 01 05:13:54
  TRACK 173 AUDIO
    TITLE "2:cjc156_0650"
    INDEX 01 05:15:65
  TRACK 174 AUDIO
    TITLE "3:cjc156_0651"
    INDEX 01 05:17:62
  TRACK 175 AUDIO
    TITLE "2:cjc156_0652"
    INDEX 01 05:19:69
  TRACK 176 AUDIO
    TITLE "3:cjc156_0653"
    INDEX 01 05:23:27
  TRACK 177 AUDIO
    TITLE "2:cjc156_0654"
    INDEX 01 05:27:02
  TRACK 178 AUDIO
    TITLE "3:cjc156_0655"
    INDEX 01 05:28:72
  TRACK 179 AUDIO
    TITLE "2:cjc156_0656"
    INDEX 01 05:30:74
  TRACK 180 AUDIO
    TITLE "3:cjc156_0657"
    INDEX 01 05:33:33
  TRACK 181 AUDIO
    TITLE "2:cjc156_0658"
    INDEX 01 05:35:74
  TRACK 182 AUDIO
    TITLE "3:cjc156_0659"
    INDEX 01 05:37:23
  TRACK 183 AUDIO
    TITLE "2:cjc156_0660"
    INDEX 01 05:38:58
  TRACK 184 AUDIO
    TITLE "3:cjc156_0661"
    INDEX 01 05:40:41
  TRACK 185 AUDIO
    TITLE "2:cjc156_0662"
    INDEX 01 05:42:27
  TRACK 186 AUDIO
    TITLE "3:cjc156_0663"
    INDEX 01 05:44:24
  TRACK 187 AUDIO
    TITLE "2:cjc156_0664"
    INDEX 01 05:46:17
  TRACK 188 AUDIO
    TITLE "3:cjc156_0665"
    INDEX 01 05:48:33
  TRACK 189 AUDIO
    TITLE "2:cjc156_0666"
    INDEX 01 05:50:59
  TRACK 190 AUDIO
    TITLE "3:cjc156_0667"
    INDEX 01 05:53:17
  TRACK 191 AUDIO
    TITLE "2:cjc156_0668"
    INDEX 01 05:55:47
  TRACK 192 AUDIO
    TITLE "3:cjc156_0669"
    INDEX 01 05:56:66
  TRACK 193 AUDIO
    TITLE "2:cjc156_0670"
    INDEX 01 05:58:14
  TRACK 194 AUDIO
    TITLE "3:cjc156_0671"
    INDEX 01 05:59:29
  TRACK 195 AUDIO
    TITLE "2:cjc156_0672"
    INDEX 01 06:00:54
  TRACK 196 AUDIO
    TITLE "3:cjc156_0673"
    INDEX 01 06:01:63
  TRACK 197 AUDIO
    TITLE "2:cjc156_0674"
    INDEX 01 06:03:01
  TRACK 198 AUDIO
    TITLE "3:cjc156_0675"
    INDEX 01 06:05:14
  TRACK 199 AUDIO
    TITLE "2:cjc156_0676"
    INDEX 01 06:07:32
  TRACK 200 AUDIO
    TITLE "3:cjc156_0677"
    INDEX 01 06:08:32
  TRACK 201 AUDIO
    TITLE "2:cjc156_0678"
    INDEX 01 06:09:37
  TRACK 202 AUDIO
    TITLE "3:cjc156_0679"
    INDEX 01 06:11:15
  TRACK 203 AUDIO
    TITLE "2:cjc156_0680"
    INDEX 01 06:13:02
  TRACK 204 AUDIO
    TITLE "3:cjc156_0681"
    INDEX 01 06:14:13
  TRACK 205 AUDIO
    TITLE "2:cjc156_0682"
    INDEX 01 06:15:32
  TRACK 206 AUDIO
    TITLE "3:cjc156_0683"
    INDEX 01 06:17:23
  TRACK 207 AUDIO
    TITLE "2:cjc156_0684"
    INDEX 01 06:19:20
  TRACK 208 AUDIO
    TITLE "3:cjc156_0685"
    INDEX 01 06:20:55
  TRACK 209 AUDIO
    TITLE "2:cjc156_0686"
    INDEX 01 06:22:14
  TRACK 210 AUDIO
    TITLE "3:cjc156_0687"
    INDEX 01 06:23:35
  TRACK 211 AUDIO
    TITLE "2:cjc156_0688"
    INDEX 01 06:24:68
  TRACK 212 AUDIO
    TITLE "3:cjc156_0689"
    INDEX 01 06:27:41
  TRACK 213 AUDIO
    TITLE "2:cjc156_0690"
    INDEX 01 06:30:26
  TRACK 214 AUDIO
    TITLE "3:cjc156_0691"
    INDEX 01 06:32:50
  TRACK 215 AUDIO
    TITLE "2:cjc156_0692"
    INDEX 01 06:35:01
  TRACK 216 AUDIO
    TITLE "3:cjc156_0693"
    INDEX 01 06:36:46
  TRACK 217 AUDIO
    TITLE "2:cjc156_0694"
    INDEX 01 06:38:21
  TRACK 218 AUDIO
    TITLE "3:cjc156_0695"
    INDEX 01 06:40:24
  TRACK 219 AUDIO
    TITLE "2:cjc156_0696"
    INDEX 01 06:42:39
  TRACK 220 AUDIO
    TITLE "3:cjc156_0697"
    INDEX 01 06:44:57
  TRACK 221 AUDIO
    TITLE "2:cjc156_0698"
    INDEX 01 06:47:06
  TRACK 222 AUDIO
    TITLE "3:cjc156_0699"
    INDEX 01 06:48:35
  TRACK 223 AUDIO
    TITLE "2:cjc156_0700"
    INDEX 01 06:49:70
  TRACK 224 AUDIO
    TITLE "3:cjc156_0701"
    INDEX 01 06:52:53
  TRACK 225 AUDIO
    TITLE "2:cjc156_0702"
    INDEX 01 06:55:51
  TRACK 226 AUDIO
    TITLE "3:cjc156_0703"
    INDEX 01 06:57:66
  TRACK 227 AUDIO
    TITLE "2:cjc156_0704"
    INDEX 01 07:00:11
  TRACK 228 AUDIO
    TITLE "3:cjc156_0705"
    INDEX 01 07:02:04
  TRACK 229 AUDIO
    TITLE "2:cjc156_0706"
    INDEX 01 07:04:05
  TRACK 230 AUDIO
    TITLE "3:cjc156_0707"
    INDEX 01 07:05:53
  TRACK 231 AUDIO
    TITLE "2:cjc156_0708"
    INDEX 01 07:07:39
  TRACK 232 AUDIO
    TITLE "3:cjc156_0709"
    INDEX 01 07:08:65
  TRACK 233 AUDIO
    TITLE "2:cjc156_0710"
    INDEX 01 07:10:27
  TRACK 234 AUDIO
    TITLE "3:cjc156_0711"
    INDEX 01 07:12:20
  TRACK 235 AUDIO
    TITLE "2:cjc156_0712"
    INDEX 01 07:14:13
  TRACK 236 AUDIO
    TITLE "3:cjc156_0713"
    INDEX 01 07:16:32
  TRACK 237 AUDIO
    TITLE "2:cjc156_0714"
    INDEX 01 07:18:56
  TRACK 238 AUDIO
    TITLE "3:cjc156_0715"
    INDEX 01 07:20:41
  TRACK 239 AUDIO
    TITLE "2:cjc156_0716"
    INDEX 01 07:22:30
  TRACK 240 AUDIO
    TITLE "3:cjc156_0717"
    INDEX 01 07:24:41
  TRACK 241 AUDIO
    TITLE "0:"
    INDEX 01 07:26:61
